<svg xmlns="http://www.w3.org/2000/svg" xmlns:xlink="http://www.w3.org/1999/xlink" viewBox="0 0 433.27 110.48"><defs><style>.cls-1{fill:none;}.cls-2{fill:#fff;}.cls-3{clip-path:url(#clip-path);}.cls-4{clip-path:url(#clip-path-2);}.cls-5{clip-path:url(#clip-path-3);}</style><clipPath id="clip-path" transform="translate(0 -0.76)"><rect class="cls-1" x="156.21" y="72.05" width="273.81" height="40.83"/></clipPath><clipPath id="clip-path-2" transform="translate(0 -0.76)"><rect class="cls-1" x="161.01" y="33.63" width="273.81" height="38.43"/></clipPath><clipPath id="clip-path-3" transform="translate(0 -0.76)"><rect class="cls-1" x="165.82" width="273.81" height="33.63"/></clipPath></defs><title>logoWhite</title><g id="Layer_2" data-name="Layer 2"><g id="Layer_1-2" data-name="Layer 1"><g id="logotype"><path class="cls-2" d="M95.25,2.4V86.56a28.86,28.86,0,0,1-2.59,11.53,19.83,19.83,0,0,1-6.2,7.78c-2.88,2.31-6.77,3.6-12,3.6s-9.22-1.3-12.1-3.6a19.42,19.42,0,0,1-6.05-7.78,28.86,28.86,0,0,1-2.59-11.53V2.4H69.31V86.56c0,3,.72,5,2.16,6.63a4.12,4.12,0,0,0,3,1.15c2.74,0,4-1.73,4.61-3.89a10.06,10.06,0,0,0,.58-3.89V2.4Z" transform="translate(0 -0.76)"/><path class="cls-2" d="M123.06,53.13l-1.3-4.9h-.86v60.09H106.63V2.4h13.83L135.6,57.6l1.3,4.9h.86V2.4H152V108.32H138.19Z" transform="translate(0 -0.76)"/><g class="cls-3"><path class="cls-2" d="M188.49,40.45V24.16c0-2.88-.58-4.9-2-6.63a4.48,4.48,0,0,0-3.17-1.15c-2.74,0-4,2-4.61,3.89a11,11,0,0,0-.58,3.89V87.86c0,3,.72,5,2.16,6.63a4.14,4.14,0,0,0,3,1.15c2.74,0,4-1.73,4.61-3.89a10.06,10.06,0,0,0,.58-3.89V68.69h-6.2V55.58H204v52.74h-9.22l-1.87-5a15.49,15.49,0,0,1-12.11,6.2c-5,0-8.5-1.3-11.1-3.6a19.23,19.23,0,0,1-5.48-7.78,29,29,0,0,1-1.73-11.53V24.16a28.73,28.73,0,0,1,2.59-11.39,19.82,19.82,0,0,1,6.05-7.92,19.82,19.82,0,0,1,12.11-3.6,19.37,19.37,0,0,1,12,3.6,20.23,20.23,0,0,1,6.2,7.92A28.73,28.73,0,0,1,204,24.16V40.45Z" transform="translate(0 -0.76)"/><path class="cls-2" d="M215.43,2.4H231V93.91H251.6v14.41H215.43Z" transform="translate(0 -0.76)"/><path class="cls-2" d="M257.94,2.4h15.56V108.32H257.94Z" transform="translate(0 -0.76)"/><path class="cls-2" d="M279.56,18.4V2.4h45v16h-14.7v89.92H294.26V18.4Z" transform="translate(0 -0.76)"/><path class="cls-2" d="M371.07,72V86.56a28.86,28.86,0,0,1-2.59,11.53,19.82,19.82,0,0,1-6.2,7.78c-2.88,2.31-6.77,3.6-12,3.6s-9.22-1.3-12.11-3.6a19.43,19.43,0,0,1-6.05-7.78,28.86,28.86,0,0,1-2.59-11.53V24.16a28.73,28.73,0,0,1,2.59-11.39,19.83,19.83,0,0,1,6.05-7.92,19.82,19.82,0,0,1,12.11-3.6,19.36,19.36,0,0,1,12,3.6,20.23,20.23,0,0,1,6.2,7.92,28.73,28.73,0,0,1,2.59,11.39V38.72H356.51V24.16a9.08,9.08,0,0,0-2.31-6.63,5.13,5.13,0,0,0-3.6-1.15c-2.74,0-4,2-4.76,3.89a15.56,15.56,0,0,0-.72,3.89v62.4a9.93,9.93,0,0,0,2.45,6.63,4.12,4.12,0,0,0,3,1.15,5,5,0,0,0,5.33-3.89,10.06,10.06,0,0,0,.58-3.89V72Z" transform="translate(0 -0.76)"/><path class="cls-2" d="M408.1,62.21H396v46.11H380.43V2.4H396V46.21H408.1V2.4h15.56V108.32H408.1Z" transform="translate(0 -0.76)"/></g><g class="cls-4"><path class="cls-2" d="M193.29,40.45V24.16c0-2.88-.58-4.9-2-6.63a4.48,4.48,0,0,0-3.17-1.15c-2.74,0-4,2-4.61,3.89a11,11,0,0,0-.58,3.89V87.86c0,3,.72,5,2.16,6.63a4.14,4.14,0,0,0,3,1.15c2.74,0,4-1.73,4.61-3.89a10.06,10.06,0,0,0,.58-3.89V68.69h-6.2V55.58h21.76v52.74h-9.22l-1.87-5a15.49,15.49,0,0,1-12.11,6.2c-5,0-8.5-1.3-11.1-3.6a19.23,19.23,0,0,1-5.48-7.78,29,29,0,0,1-1.73-11.53V24.16a28.73,28.73,0,0,1,2.59-11.39A19.82,19.82,0,0,1,176,4.86a19.82,19.82,0,0,1,12.11-3.6,19.37,19.37,0,0,1,12,3.6,20.23,20.23,0,0,1,6.2,7.92,28.73,28.73,0,0,1,2.59,11.39V40.45Z" transform="translate(0 -0.76)"/><path class="cls-2" d="M220.24,2.4H235.8V93.91h20.61v14.41H220.24Z" transform="translate(0 -0.76)"/><path class="cls-2" d="M262.75,2.4h15.56V108.32H262.75Z" transform="translate(0 -0.76)"/><path class="cls-2" d="M284.36,18.4V2.4h45v16h-14.7v89.92H299.06V18.4Z" transform="translate(0 -0.76)"/><path class="cls-2" d="M375.87,72V86.56a28.86,28.86,0,0,1-2.59,11.53,19.82,19.82,0,0,1-6.2,7.78c-2.88,2.31-6.77,3.6-12,3.6s-9.22-1.3-12.11-3.6A19.43,19.43,0,0,1,337,98.09a28.86,28.86,0,0,1-2.59-11.53V24.16A28.73,28.73,0,0,1,337,12.78,19.83,19.83,0,0,1,343,4.86a19.82,19.82,0,0,1,12.11-3.6,19.36,19.36,0,0,1,12,3.6,20.23,20.23,0,0,1,6.2,7.92,28.73,28.73,0,0,1,2.59,11.39V38.72H361.31V24.16A9.08,9.08,0,0,0,359,17.54a5.13,5.13,0,0,0-3.6-1.15c-2.74,0-4,2-4.76,3.89a15.56,15.56,0,0,0-.72,3.89v62.4a9.93,9.93,0,0,0,2.45,6.63,4.12,4.12,0,0,0,3,1.15,5,5,0,0,0,5.33-3.89,10.06,10.06,0,0,0,.58-3.89V72Z" transform="translate(0 -0.76)"/><path class="cls-2" d="M412.9,62.21H400.8v46.11H385.24V2.4H400.8V46.21H412.9V2.4h15.56V108.32H412.9Z" transform="translate(0 -0.76)"/></g><g class="cls-5"><path class="cls-2" d="M198.09,40.45V24.16c0-2.88-.58-4.9-2-6.63a4.48,4.48,0,0,0-3.17-1.15c-2.74,0-4,2-4.61,3.89a11,11,0,0,0-.58,3.89V87.86c0,3,.72,5,2.16,6.63a4.14,4.14,0,0,0,3,1.15c2.74,0,4-1.73,4.61-3.89a10.06,10.06,0,0,0,.58-3.89V68.69h-6.2V55.58h21.76v52.74h-9.22l-1.87-5a15.49,15.49,0,0,1-12.11,6.2c-5,0-8.5-1.3-11.1-3.6a19.23,19.23,0,0,1-5.48-7.78,29,29,0,0,1-1.73-11.53V24.16a28.73,28.73,0,0,1,2.59-11.39,19.82,19.82,0,0,1,6.05-7.92,19.82,19.82,0,0,1,12.11-3.6,19.37,19.37,0,0,1,12,3.6,20.23,20.23,0,0,1,6.2,7.92,28.73,28.73,0,0,1,2.59,11.39V40.45Z" transform="translate(0 -0.76)"/><path class="cls-2" d="M225,2.4H240.6V93.91h20.61v14.41H225Z" transform="translate(0 -0.76)"/><path class="cls-2" d="M267.55,2.4h15.56V108.32H267.55Z" transform="translate(0 -0.76)"/><path class="cls-2" d="M289.17,18.4V2.4h45v16h-14.7v89.92H303.86V18.4Z" transform="translate(0 -0.76)"/><path class="cls-2" d="M380.67,72V86.56a28.86,28.86,0,0,1-2.59,11.53,19.82,19.82,0,0,1-6.2,7.78c-2.88,2.31-6.77,3.6-12,3.6s-9.22-1.3-12.11-3.6a19.43,19.43,0,0,1-6.05-7.78,28.86,28.86,0,0,1-2.59-11.53V24.16a28.73,28.73,0,0,1,2.59-11.39,19.83,19.83,0,0,1,6.05-7.92,19.82,19.82,0,0,1,12.11-3.6,19.36,19.36,0,0,1,12,3.6,20.23,20.23,0,0,1,6.2,7.92,28.73,28.73,0,0,1,2.59,11.39V38.72H366.12V24.16a9.08,9.08,0,0,0-2.31-6.63,5.13,5.13,0,0,0-3.6-1.15c-2.74,0-4,2-4.76,3.89a15.56,15.56,0,0,0-.72,3.89v62.4a9.93,9.93,0,0,0,2.45,6.63,4.12,4.12,0,0,0,3,1.15,5,5,0,0,0,5.33-3.89,10.06,10.06,0,0,0,.58-3.89V72Z" transform="translate(0 -0.76)"/><path class="cls-2" d="M417.71,62.21H405.6v46.11H390V2.4H405.6V46.21h12.11V2.4h15.56V108.32H417.71Z" transform="translate(0 -0.76)"/></g></g><g id="logo"><polygon class="cls-2" points="5.21 46.49 8.98 48.6 8.98 101.9 5.21 101.9 5.21 46.49"/><circle class="cls-2" cx="7.09" cy="103.39" r="7.09"/><circle class="cls-2" cx="7.09" cy="49.34" r="7.09"/><circle class="cls-2" cx="7.09" cy="27.06" r="7.09"/><circle class="cls-2" cx="7.09" cy="7.09" r="7.09"/></g></g></g></svg>