<svg xmlns="http://www.w3.org/2000/svg" xmlns:xlink="http://www.w3.org/1999/xlink" viewBox="0 0 142.43 37.05"><defs><style>.cls-1{fill:none;}.cls-2{clip-path:url(#clip-path);}.cls-3{clip-path:url(#clip-path-2);}.cls-4{clip-path:url(#clip-path-3);}</style><clipPath id="clip-path" transform="translate(0 -0.25)"><rect class="cls-1" x="49.51" y="24.16" width="91.82" height="13.69"/></clipPath><clipPath id="clip-path-2" transform="translate(0 -0.25)"><rect class="cls-1" x="51.12" y="11.28" width="91.82" height="12.89"/></clipPath><clipPath id="clip-path-3" transform="translate(0 -0.25)"><rect class="cls-1" x="52.73" width="91.82" height="11.28"/></clipPath></defs><title>Asset 7</title><g id="Layer_2" data-name="Layer 2"><g id="text"><g id="logo"><polygon points="1.75 15.59 3.01 16.3 3.01 34.17 1.75 34.17 1.75 15.59"/><circle cx="2.38" cy="34.67" r="2.38"/><circle cx="2.38" cy="16.55" r="2.38"/><circle cx="2.38" cy="9.07" r="2.38"/><circle cx="2.38" cy="2.38" r="2.38"/></g><g id="logotype"><path d="M29.07.81V29a9.68,9.68,0,0,1-.87,3.87,6.65,6.65,0,0,1-2.08,2.61,6.2,6.2,0,0,1-4,1.21A6.35,6.35,0,0,1,18,35.5a6.51,6.51,0,0,1-2-2.61A9.68,9.68,0,0,1,15.15,29V.81h5.22V29a3.08,3.08,0,0,0,.72,2.22,1.38,1.38,0,0,0,1,.39,1.53,1.53,0,0,0,1.55-1.3,3.38,3.38,0,0,0,.19-1.3V.81Z" transform="translate(0 -0.25)"/><path d="M38.4,17.82,38,16.17h-.29V36.33H32.89V.81h4.64L42.6,19.32,43,21h.29V.81h4.78V36.33H43.47Z" transform="translate(0 -0.25)"/><g class="cls-2"><path d="M60.34,13.56V8.1a3.22,3.22,0,0,0-.68-2.22,1.5,1.5,0,0,0-1.06-.39,1.61,1.61,0,0,0-1.55,1.3,3.7,3.7,0,0,0-.19,1.3V29.46a3.08,3.08,0,0,0,.72,2.22,1.39,1.39,0,0,0,1,.39,1.53,1.53,0,0,0,1.55-1.3,3.37,3.37,0,0,0,.19-1.3V23H58.26v-4.4h7.3V36.33H62.46l-.63-1.69a5.19,5.19,0,0,1-4.06,2.08,5.29,5.29,0,0,1-3.72-1.21,6.45,6.45,0,0,1-1.84-2.61A9.73,9.73,0,0,1,51.64,29V8.1a9.63,9.63,0,0,1,.87-3.82,6.65,6.65,0,0,1,2-2.66A6.65,6.65,0,0,1,58.6.42a6.49,6.49,0,0,1,4,1.21,6.79,6.79,0,0,1,2.08,2.66,9.63,9.63,0,0,1,.87,3.82v5.46Z" transform="translate(0 -0.25)"/><path d="M69.37.81h5.22V31.49H81.5v4.83H69.37Z" transform="translate(0 -0.25)"/><path d="M83.63.81h5.22V36.33H83.63Z" transform="translate(0 -0.25)"/><path d="M90.88,6.17V.81H106V6.17H101V36.33H95.81V6.17Z" transform="translate(0 -0.25)"/><path d="M121.57,24.15V29a9.68,9.68,0,0,1-.87,3.87,6.65,6.65,0,0,1-2.08,2.61,6.2,6.2,0,0,1-4,1.21,6.35,6.35,0,0,1-4.06-1.21,6.52,6.52,0,0,1-2-2.61,9.68,9.68,0,0,1-.87-3.87V8.1a9.63,9.63,0,0,1,.87-3.82,6.65,6.65,0,0,1,2-2.66A6.65,6.65,0,0,1,114.61.42a6.49,6.49,0,0,1,4,1.21,6.78,6.78,0,0,1,2.08,2.66,9.63,9.63,0,0,1,.87,3.82V13h-4.88V8.1a3,3,0,0,0-.77-2.22,1.76,1.76,0,0,0-2.8.92,5.22,5.22,0,0,0-.24,1.3V29a3.33,3.33,0,0,0,.82,2.22,1.38,1.38,0,0,0,1,.39,1.68,1.68,0,0,0,1.79-1.3,3.38,3.38,0,0,0,.19-1.3V24.15Z" transform="translate(0 -0.25)"/><path d="M134,20.86h-4.06V36.33h-5.22V.81h5.22V15.5H134V.81h5.22V36.33H134Z" transform="translate(0 -0.25)"/></g><g class="cls-3"><path d="M61.95,13.56V8.1a3.22,3.22,0,0,0-.68-2.22,1.5,1.5,0,0,0-1.06-.39,1.61,1.61,0,0,0-1.55,1.3,3.7,3.7,0,0,0-.19,1.3V29.46a3.08,3.08,0,0,0,.72,2.22,1.39,1.39,0,0,0,1,.39,1.53,1.53,0,0,0,1.55-1.3,3.37,3.37,0,0,0,.19-1.3V23H59.87v-4.4h7.3V36.33H64.07l-.63-1.69a5.19,5.19,0,0,1-4.06,2.08,5.29,5.29,0,0,1-3.72-1.21,6.45,6.45,0,0,1-1.84-2.61A9.73,9.73,0,0,1,53.25,29V8.1a9.63,9.63,0,0,1,.87-3.82,6.65,6.65,0,0,1,2-2.66A6.65,6.65,0,0,1,60.21.42a6.49,6.49,0,0,1,4,1.21A6.79,6.79,0,0,1,66.3,4.29a9.63,9.63,0,0,1,.87,3.82v5.46Z" transform="translate(0 -0.25)"/><path d="M71,.81H76.2V31.49h6.91v4.83H71Z" transform="translate(0 -0.25)"/><path d="M85.24.81h5.22V36.33H85.24Z" transform="translate(0 -0.25)"/><path d="M92.49,6.17V.81h15.08V6.17h-4.93V36.33H97.42V6.17Z" transform="translate(0 -0.25)"/><path d="M123.18,24.15V29a9.68,9.68,0,0,1-.87,3.87,6.65,6.65,0,0,1-2.08,2.61,6.2,6.2,0,0,1-4,1.21,6.35,6.35,0,0,1-4.06-1.21,6.52,6.52,0,0,1-2-2.61,9.68,9.68,0,0,1-.87-3.87V8.1a9.63,9.63,0,0,1,.87-3.82,6.65,6.65,0,0,1,2-2.66A6.65,6.65,0,0,1,116.22.42a6.49,6.49,0,0,1,4,1.21,6.78,6.78,0,0,1,2.08,2.66,9.63,9.63,0,0,1,.87,3.82V13H118.3V8.1a3,3,0,0,0-.77-2.22,1.76,1.76,0,0,0-2.8.92,5.22,5.22,0,0,0-.24,1.3V29a3.33,3.33,0,0,0,.82,2.22,1.38,1.38,0,0,0,1,.39,1.68,1.68,0,0,0,1.79-1.3,3.38,3.38,0,0,0,.19-1.3V24.15Z" transform="translate(0 -0.25)"/><path d="M135.6,20.86h-4.06V36.33h-5.22V.81h5.22V15.5h4.06V.81h5.22V36.33H135.6Z" transform="translate(0 -0.25)"/></g><g class="cls-4"><path d="M63.56,13.56V8.1a3.22,3.22,0,0,0-.68-2.22,1.5,1.5,0,0,0-1.06-.39,1.61,1.61,0,0,0-1.55,1.3,3.7,3.7,0,0,0-.19,1.3V29.46a3.08,3.08,0,0,0,.72,2.22,1.39,1.39,0,0,0,1,.39,1.53,1.53,0,0,0,1.55-1.3,3.37,3.37,0,0,0,.19-1.3V23H61.48v-4.4h7.3V36.33H65.68l-.63-1.69A5.19,5.19,0,0,1,61,36.71a5.29,5.29,0,0,1-3.72-1.21,6.45,6.45,0,0,1-1.84-2.61A9.73,9.73,0,0,1,54.86,29V8.1a9.63,9.63,0,0,1,.87-3.82,6.65,6.65,0,0,1,2-2.66A6.65,6.65,0,0,1,61.82.42a6.49,6.49,0,0,1,4,1.21,6.79,6.79,0,0,1,2.08,2.66,9.63,9.63,0,0,1,.87,3.82v5.46Z" transform="translate(0 -0.25)"/><path d="M72.6.81h5.22V31.49h6.91v4.83H72.6Z" transform="translate(0 -0.25)"/><path d="M86.85.81h5.22V36.33H86.85Z" transform="translate(0 -0.25)"/><path d="M94.1,6.17V.81h15.08V6.17h-4.93V36.33H99V6.17Z" transform="translate(0 -0.25)"/><path d="M124.79,24.15V29a9.68,9.68,0,0,1-.87,3.87,6.65,6.65,0,0,1-2.08,2.61,6.2,6.2,0,0,1-4,1.21,6.35,6.35,0,0,1-4.06-1.21,6.52,6.52,0,0,1-2-2.61,9.68,9.68,0,0,1-.87-3.87V8.1a9.63,9.63,0,0,1,.87-3.82,6.65,6.65,0,0,1,2-2.66A6.65,6.65,0,0,1,117.83.42a6.49,6.49,0,0,1,4,1.21,6.78,6.78,0,0,1,2.08,2.66,9.63,9.63,0,0,1,.87,3.82V13h-4.88V8.1a3,3,0,0,0-.77-2.22,1.76,1.76,0,0,0-2.8.92,5.22,5.22,0,0,0-.24,1.3V29a3.33,3.33,0,0,0,.82,2.22,1.38,1.38,0,0,0,1,.39,1.68,1.68,0,0,0,1.79-1.3,3.38,3.38,0,0,0,.19-1.3V24.15Z" transform="translate(0 -0.25)"/><path d="M137.21,20.86h-4.06V36.33h-5.22V.81h5.22V15.5h4.06V.81h5.22V36.33h-5.22Z" transform="translate(0 -0.25)"/></g></g></g></g></svg>